<svg xmlns="http://www.w3.org/2000/svg" xmlns:xlink="http://www.w3.org/1999/xlink" width="1080" height="1080" viewBox="0 0 1080 1080"><defs><clipPath id="clip-stencil-transparent"><rect width="1080" height="1080"/></clipPath></defs><g id="stencil-transparent" clip-path="url(#clip-stencil-transparent)"><path id="Subtraction_3" d="M-339,4480h0a548.406,548.406,0,0,1-63.482-3.658,499.48,499.48,0,0,1-59.13-10.487,429.19,429.19,0,0,1-53.506-16.6,343.765,343.765,0,0,1-46.62-21.98A257.3,257.3,0,0,1-600.2,4400.64a183.277,183.277,0,0,1-29.044-30.576,131.733,131.733,0,0,1-18.355-33.787A107.387,107.387,0,0,1-654,4300V4120c0,48.078,32.765,93.28,92.262,127.279S-423.138,4300-339,4300l0,180Zm0-360h-.028a548.508,548.508,0,0,1-63.458-3.656,499.859,499.859,0,0,1-59.129-10.488,428.916,428.916,0,0,1-53.507-16.6,343.884,343.884,0,0,1-46.619-21.979,257.359,257.359,0,0,1-38.464-26.64,183.238,183.238,0,0,1-29.043-30.575,131.7,131.7,0,0,1-18.354-33.788A107.377,107.377,0,0,1-654,3940a107.378,107.378,0,0,1,6.4-36.276,131.692,131.692,0,0,1,18.354-33.788A183.235,183.235,0,0,1-600.2,3839.36a257.359,257.359,0,0,1,38.464-26.64,343.884,343.884,0,0,1,46.619-21.979,428.916,428.916,0,0,1,53.507-16.6,499.76,499.76,0,0,1,59.129-10.488A548.736,548.736,0,0,1-339,3760a548.736,548.736,0,0,1,63.483,3.657,499.762,499.762,0,0,1,59.129,10.488,428.932,428.932,0,0,1,53.507,16.6,343.89,343.89,0,0,1,46.619,21.979A257.368,257.368,0,0,1-77.8,3839.36a183.225,183.225,0,0,1,29.043,30.576A131.692,131.692,0,0,1-30.4,3903.723,107.378,107.378,0,0,1-24,3940a109.042,109.042,0,0,1-9.924,45H-249a90.1,90.1,0,0,0-90,90Z" data-name="Subtraction 3" transform="translate(833.996 -3580)"/><g id="Rectangle_1578" stroke="#707070" stroke-width="1" data-name="Rectangle 1578" transform="translate(585 765)"><rect width="90" height="90" stroke="none"/><rect width="89" height="89" x=".5" y=".5" fill="none"/></g><path id="Rectangle_1580" d="M0,0H270a0,0,0,0,1,0,0V0a90,90,0,0,1-90,90H0a0,0,0,0,1,0,0V0A0,0,0,0,1,0,0Z" data-name="Rectangle 1580" transform="translate(585 585)"/><rect id="Rectangle_1581" width="450" height="90" data-name="Rectangle 1581" transform="translate(495 405)"/><circle id="Ellipse_9" cx="45" cy="45" r="45" data-name="Ellipse 9" transform="translate(765 765)"/></g></svg>