<svg xmlns="http://www.w3.org/2000/svg" xmlns:xlink="http://www.w3.org/1999/xlink" width="1080" height="1080" viewBox="0 0 1080 1080"><defs><clipPath id="clip-path"><rect width="1080" height="1080" fill="none"/></clipPath><clipPath id="clip-path-2"><circle id="Ellipse_22" cx="540" cy="540" r="540" stroke="#707070" stroke-width="1" data-name="Ellipse 22"/></clipPath><clipPath id="clip-grid"><rect width="1080" height="1080"/></clipPath></defs><g id="grid" clip-path="url(#clip-grid)"><g id="Repeat_Grid_1" clip-path="url(#clip-path)" data-name="Repeat Grid 1"><g><rect id="Rectangle_1609" width="90" height="90" fill="#e6e6e6" data-name="Rectangle 1609"/><rect id="Rectangle_1611" width="90" height="90" fill="#e6e6e6" data-name="Rectangle 1611" transform="translate(90 90)"/><rect id="Rectangle_1610" width="90" height="90" fill="gray" data-name="Rectangle 1610" transform="translate(90)"/><rect id="Rectangle_1612" width="90" height="90" fill="gray" data-name="Rectangle 1612" transform="translate(0 90)"/></g><g transform="translate(180)"><rect id="Rectangle_1609-2" width="90" height="90" fill="#e6e6e6" data-name="Rectangle 1609"/><rect id="Rectangle_1611-2" width="90" height="90" fill="#e6e6e6" data-name="Rectangle 1611" transform="translate(90 90)"/><rect id="Rectangle_1610-2" width="90" height="90" fill="gray" data-name="Rectangle 1610" transform="translate(90)"/><rect id="Rectangle_1612-2" width="90" height="90" fill="gray" data-name="Rectangle 1612" transform="translate(0 90)"/></g><g transform="translate(360)"><rect id="Rectangle_1609-3" width="90" height="90" fill="#e6e6e6" data-name="Rectangle 1609"/><rect id="Rectangle_1611-3" width="90" height="90" fill="#e6e6e6" data-name="Rectangle 1611" transform="translate(90 90)"/><rect id="Rectangle_1610-3" width="90" height="90" fill="gray" data-name="Rectangle 1610" transform="translate(90)"/><rect id="Rectangle_1612-3" width="90" height="90" fill="gray" data-name="Rectangle 1612" transform="translate(0 90)"/></g><g transform="translate(540)"><rect id="Rectangle_1609-4" width="90" height="90" fill="#e6e6e6" data-name="Rectangle 1609"/><rect id="Rectangle_1611-4" width="90" height="90" fill="#e6e6e6" data-name="Rectangle 1611" transform="translate(90 90)"/><rect id="Rectangle_1610-4" width="90" height="90" fill="gray" data-name="Rectangle 1610" transform="translate(90)"/><rect id="Rectangle_1612-4" width="90" height="90" fill="gray" data-name="Rectangle 1612" transform="translate(0 90)"/></g><g transform="translate(720)"><rect id="Rectangle_1609-5" width="90" height="90" fill="#e6e6e6" data-name="Rectangle 1609"/><rect id="Rectangle_1611-5" width="90" height="90" fill="#e6e6e6" data-name="Rectangle 1611" transform="translate(90 90)"/><rect id="Rectangle_1610-5" width="90" height="90" fill="gray" data-name="Rectangle 1610" transform="translate(90)"/><rect id="Rectangle_1612-5" width="90" height="90" fill="gray" data-name="Rectangle 1612" transform="translate(0 90)"/></g><g transform="translate(900)"><rect id="Rectangle_1609-6" width="90" height="90" fill="#e6e6e6" data-name="Rectangle 1609"/><rect id="Rectangle_1611-6" width="90" height="90" fill="#e6e6e6" data-name="Rectangle 1611" transform="translate(90 90)"/><rect id="Rectangle_1610-6" width="90" height="90" fill="gray" data-name="Rectangle 1610" transform="translate(90)"/><rect id="Rectangle_1612-6" width="90" height="90" fill="gray" data-name="Rectangle 1612" transform="translate(0 90)"/></g><g transform="translate(0 180)"><rect id="Rectangle_1609-7" width="90" height="90" fill="#e6e6e6" data-name="Rectangle 1609"/><rect id="Rectangle_1611-7" width="90" height="90" fill="#e6e6e6" data-name="Rectangle 1611" transform="translate(90 90)"/><rect id="Rectangle_1610-7" width="90" height="90" fill="gray" data-name="Rectangle 1610" transform="translate(90)"/><rect id="Rectangle_1612-7" width="90" height="90" fill="gray" data-name="Rectangle 1612" transform="translate(0 90)"/></g><g transform="translate(180 180)"><rect id="Rectangle_1609-8" width="90" height="90" fill="#e6e6e6" data-name="Rectangle 1609"/><rect id="Rectangle_1611-8" width="90" height="90" fill="#e6e6e6" data-name="Rectangle 1611" transform="translate(90 90)"/><rect id="Rectangle_1610-8" width="90" height="90" fill="gray" data-name="Rectangle 1610" transform="translate(90)"/><rect id="Rectangle_1612-8" width="90" height="90" fill="gray" data-name="Rectangle 1612" transform="translate(0 90)"/></g><g transform="translate(360 180)"><rect id="Rectangle_1609-9" width="90" height="90" fill="#e6e6e6" data-name="Rectangle 1609"/><rect id="Rectangle_1611-9" width="90" height="90" fill="#e6e6e6" data-name="Rectangle 1611" transform="translate(90 90)"/><rect id="Rectangle_1610-9" width="90" height="90" fill="gray" data-name="Rectangle 1610" transform="translate(90)"/><rect id="Rectangle_1612-9" width="90" height="90" fill="gray" data-name="Rectangle 1612" transform="translate(0 90)"/></g><g transform="translate(540 180)"><rect id="Rectangle_1609-10" width="90" height="90" fill="#e6e6e6" data-name="Rectangle 1609"/><rect id="Rectangle_1611-10" width="90" height="90" fill="#e6e6e6" data-name="Rectangle 1611" transform="translate(90 90)"/><rect id="Rectangle_1610-10" width="90" height="90" fill="gray" data-name="Rectangle 1610" transform="translate(90)"/><rect id="Rectangle_1612-10" width="90" height="90" fill="gray" data-name="Rectangle 1612" transform="translate(0 90)"/></g><g transform="translate(720 180)"><rect id="Rectangle_1609-11" width="90" height="90" fill="#e6e6e6" data-name="Rectangle 1609"/><rect id="Rectangle_1611-11" width="90" height="90" fill="#e6e6e6" data-name="Rectangle 1611" transform="translate(90 90)"/><rect id="Rectangle_1610-11" width="90" height="90" fill="gray" data-name="Rectangle 1610" transform="translate(90)"/><rect id="Rectangle_1612-11" width="90" height="90" fill="gray" data-name="Rectangle 1612" transform="translate(0 90)"/></g><g transform="translate(900 180)"><rect id="Rectangle_1609-12" width="90" height="90" fill="#e6e6e6" data-name="Rectangle 1609"/><rect id="Rectangle_1611-12" width="90" height="90" fill="#e6e6e6" data-name="Rectangle 1611" transform="translate(90 90)"/><rect id="Rectangle_1610-12" width="90" height="90" fill="gray" data-name="Rectangle 1610" transform="translate(90)"/><rect id="Rectangle_1612-12" width="90" height="90" fill="gray" data-name="Rectangle 1612" transform="translate(0 90)"/></g><g transform="translate(0 360)"><rect id="Rectangle_1609-13" width="90" height="90" fill="#e6e6e6" data-name="Rectangle 1609"/><rect id="Rectangle_1611-13" width="90" height="90" fill="#e6e6e6" data-name="Rectangle 1611" transform="translate(90 90)"/><rect id="Rectangle_1610-13" width="90" height="90" fill="gray" data-name="Rectangle 1610" transform="translate(90)"/><rect id="Rectangle_1612-13" width="90" height="90" fill="gray" data-name="Rectangle 1612" transform="translate(0 90)"/></g><g transform="translate(180 360)"><rect id="Rectangle_1609-14" width="90" height="90" fill="#e6e6e6" data-name="Rectangle 1609"/><rect id="Rectangle_1611-14" width="90" height="90" fill="#e6e6e6" data-name="Rectangle 1611" transform="translate(90 90)"/><rect id="Rectangle_1610-14" width="90" height="90" fill="gray" data-name="Rectangle 1610" transform="translate(90)"/><rect id="Rectangle_1612-14" width="90" height="90" fill="gray" data-name="Rectangle 1612" transform="translate(0 90)"/></g><g transform="translate(360 360)"><rect id="Rectangle_1609-15" width="90" height="90" fill="#e6e6e6" data-name="Rectangle 1609"/><rect id="Rectangle_1611-15" width="90" height="90" fill="#e6e6e6" data-name="Rectangle 1611" transform="translate(90 90)"/><rect id="Rectangle_1610-15" width="90" height="90" fill="gray" data-name="Rectangle 1610" transform="translate(90)"/><rect id="Rectangle_1612-15" width="90" height="90" fill="gray" data-name="Rectangle 1612" transform="translate(0 90)"/></g><g transform="translate(540 360)"><rect id="Rectangle_1609-16" width="90" height="90" fill="#e6e6e6" data-name="Rectangle 1609"/><rect id="Rectangle_1611-16" width="90" height="90" fill="#e6e6e6" data-name="Rectangle 1611" transform="translate(90 90)"/><rect id="Rectangle_1610-16" width="90" height="90" fill="gray" data-name="Rectangle 1610" transform="translate(90)"/><rect id="Rectangle_1612-16" width="90" height="90" fill="gray" data-name="Rectangle 1612" transform="translate(0 90)"/></g><g transform="translate(720 360)"><rect id="Rectangle_1609-17" width="90" height="90" fill="#e6e6e6" data-name="Rectangle 1609"/><rect id="Rectangle_1611-17" width="90" height="90" fill="#e6e6e6" data-name="Rectangle 1611" transform="translate(90 90)"/><rect id="Rectangle_1610-17" width="90" height="90" fill="gray" data-name="Rectangle 1610" transform="translate(90)"/><rect id="Rectangle_1612-17" width="90" height="90" fill="gray" data-name="Rectangle 1612" transform="translate(0 90)"/></g><g transform="translate(900 360)"><rect id="Rectangle_1609-18" width="90" height="90" fill="#e6e6e6" data-name="Rectangle 1609"/><rect id="Rectangle_1611-18" width="90" height="90" fill="#e6e6e6" data-name="Rectangle 1611" transform="translate(90 90)"/><rect id="Rectangle_1610-18" width="90" height="90" fill="gray" data-name="Rectangle 1610" transform="translate(90)"/><rect id="Rectangle_1612-18" width="90" height="90" fill="gray" data-name="Rectangle 1612" transform="translate(0 90)"/></g><g transform="translate(0 540)"><rect id="Rectangle_1609-19" width="90" height="90" fill="#e6e6e6" data-name="Rectangle 1609"/><rect id="Rectangle_1611-19" width="90" height="90" fill="#e6e6e6" data-name="Rectangle 1611" transform="translate(90 90)"/><rect id="Rectangle_1610-19" width="90" height="90" fill="gray" data-name="Rectangle 1610" transform="translate(90)"/><rect id="Rectangle_1612-19" width="90" height="90" fill="gray" data-name="Rectangle 1612" transform="translate(0 90)"/></g><g transform="translate(180 540)"><rect id="Rectangle_1609-20" width="90" height="90" fill="#e6e6e6" data-name="Rectangle 1609"/><rect id="Rectangle_1611-20" width="90" height="90" fill="#e6e6e6" data-name="Rectangle 1611" transform="translate(90 90)"/><rect id="Rectangle_1610-20" width="90" height="90" fill="gray" data-name="Rectangle 1610" transform="translate(90)"/><rect id="Rectangle_1612-20" width="90" height="90" fill="gray" data-name="Rectangle 1612" transform="translate(0 90)"/></g><g transform="translate(360 540)"><rect id="Rectangle_1609-21" width="90" height="90" fill="#e6e6e6" data-name="Rectangle 1609"/><rect id="Rectangle_1611-21" width="90" height="90" fill="#e6e6e6" data-name="Rectangle 1611" transform="translate(90 90)"/><rect id="Rectangle_1610-21" width="90" height="90" fill="gray" data-name="Rectangle 1610" transform="translate(90)"/><rect id="Rectangle_1612-21" width="90" height="90" fill="gray" data-name="Rectangle 1612" transform="translate(0 90)"/></g><g transform="translate(540 540)"><rect id="Rectangle_1609-22" width="90" height="90" fill="#e6e6e6" data-name="Rectangle 1609"/><rect id="Rectangle_1611-22" width="90" height="90" fill="#e6e6e6" data-name="Rectangle 1611" transform="translate(90 90)"/><rect id="Rectangle_1610-22" width="90" height="90" fill="gray" data-name="Rectangle 1610" transform="translate(90)"/><rect id="Rectangle_1612-22" width="90" height="90" fill="gray" data-name="Rectangle 1612" transform="translate(0 90)"/></g><g transform="translate(720 540)"><rect id="Rectangle_1609-23" width="90" height="90" fill="#e6e6e6" data-name="Rectangle 1609"/><rect id="Rectangle_1611-23" width="90" height="90" fill="#e6e6e6" data-name="Rectangle 1611" transform="translate(90 90)"/><rect id="Rectangle_1610-23" width="90" height="90" fill="gray" data-name="Rectangle 1610" transform="translate(90)"/><rect id="Rectangle_1612-23" width="90" height="90" fill="gray" data-name="Rectangle 1612" transform="translate(0 90)"/></g><g transform="translate(900 540)"><rect id="Rectangle_1609-24" width="90" height="90" fill="#e6e6e6" data-name="Rectangle 1609"/><rect id="Rectangle_1611-24" width="90" height="90" fill="#e6e6e6" data-name="Rectangle 1611" transform="translate(90 90)"/><rect id="Rectangle_1610-24" width="90" height="90" fill="gray" data-name="Rectangle 1610" transform="translate(90)"/><rect id="Rectangle_1612-24" width="90" height="90" fill="gray" data-name="Rectangle 1612" transform="translate(0 90)"/></g><g transform="translate(0 720)"><rect id="Rectangle_1609-25" width="90" height="90" fill="#e6e6e6" data-name="Rectangle 1609"/><rect id="Rectangle_1611-25" width="90" height="90" fill="#e6e6e6" data-name="Rectangle 1611" transform="translate(90 90)"/><rect id="Rectangle_1610-25" width="90" height="90" fill="gray" data-name="Rectangle 1610" transform="translate(90)"/><rect id="Rectangle_1612-25" width="90" height="90" fill="gray" data-name="Rectangle 1612" transform="translate(0 90)"/></g><g transform="translate(180 720)"><rect id="Rectangle_1609-26" width="90" height="90" fill="#e6e6e6" data-name="Rectangle 1609"/><rect id="Rectangle_1611-26" width="90" height="90" fill="#e6e6e6" data-name="Rectangle 1611" transform="translate(90 90)"/><rect id="Rectangle_1610-26" width="90" height="90" fill="gray" data-name="Rectangle 1610" transform="translate(90)"/><rect id="Rectangle_1612-26" width="90" height="90" fill="gray" data-name="Rectangle 1612" transform="translate(0 90)"/></g><g transform="translate(360 720)"><rect id="Rectangle_1609-27" width="90" height="90" fill="#e6e6e6" data-name="Rectangle 1609"/><rect id="Rectangle_1611-27" width="90" height="90" fill="#e6e6e6" data-name="Rectangle 1611" transform="translate(90 90)"/><rect id="Rectangle_1610-27" width="90" height="90" fill="gray" data-name="Rectangle 1610" transform="translate(90)"/><rect id="Rectangle_1612-27" width="90" height="90" fill="gray" data-name="Rectangle 1612" transform="translate(0 90)"/></g><g transform="translate(540 720)"><rect id="Rectangle_1609-28" width="90" height="90" fill="#e6e6e6" data-name="Rectangle 1609"/><rect id="Rectangle_1611-28" width="90" height="90" fill="#e6e6e6" data-name="Rectangle 1611" transform="translate(90 90)"/><rect id="Rectangle_1610-28" width="90" height="90" fill="gray" data-name="Rectangle 1610" transform="translate(90)"/><rect id="Rectangle_1612-28" width="90" height="90" fill="gray" data-name="Rectangle 1612" transform="translate(0 90)"/></g><g transform="translate(720 720)"><rect id="Rectangle_1609-29" width="90" height="90" fill="#e6e6e6" data-name="Rectangle 1609"/><rect id="Rectangle_1611-29" width="90" height="90" fill="#e6e6e6" data-name="Rectangle 1611" transform="translate(90 90)"/><rect id="Rectangle_1610-29" width="90" height="90" fill="gray" data-name="Rectangle 1610" transform="translate(90)"/><rect id="Rectangle_1612-29" width="90" height="90" fill="gray" data-name="Rectangle 1612" transform="translate(0 90)"/></g><g transform="translate(900 720)"><rect id="Rectangle_1609-30" width="90" height="90" fill="#e6e6e6" data-name="Rectangle 1609"/><rect id="Rectangle_1611-30" width="90" height="90" fill="#e6e6e6" data-name="Rectangle 1611" transform="translate(90 90)"/><rect id="Rectangle_1610-30" width="90" height="90" fill="gray" data-name="Rectangle 1610" transform="translate(90)"/><rect id="Rectangle_1612-30" width="90" height="90" fill="gray" data-name="Rectangle 1612" transform="translate(0 90)"/></g><g transform="translate(0 900)"><rect id="Rectangle_1609-31" width="90" height="90" fill="#e6e6e6" data-name="Rectangle 1609"/><rect id="Rectangle_1611-31" width="90" height="90" fill="#e6e6e6" data-name="Rectangle 1611" transform="translate(90 90)"/><rect id="Rectangle_1610-31" width="90" height="90" fill="gray" data-name="Rectangle 1610" transform="translate(90)"/><rect id="Rectangle_1612-31" width="90" height="90" fill="gray" data-name="Rectangle 1612" transform="translate(0 90)"/></g><g transform="translate(180 900)"><rect id="Rectangle_1609-32" width="90" height="90" fill="#e6e6e6" data-name="Rectangle 1609"/><rect id="Rectangle_1611-32" width="90" height="90" fill="#e6e6e6" data-name="Rectangle 1611" transform="translate(90 90)"/><rect id="Rectangle_1610-32" width="90" height="90" fill="gray" data-name="Rectangle 1610" transform="translate(90)"/><rect id="Rectangle_1612-32" width="90" height="90" fill="gray" data-name="Rectangle 1612" transform="translate(0 90)"/></g><g transform="translate(360 900)"><rect id="Rectangle_1609-33" width="90" height="90" fill="#e6e6e6" data-name="Rectangle 1609"/><rect id="Rectangle_1611-33" width="90" height="90" fill="#e6e6e6" data-name="Rectangle 1611" transform="translate(90 90)"/><rect id="Rectangle_1610-33" width="90" height="90" fill="gray" data-name="Rectangle 1610" transform="translate(90)"/><rect id="Rectangle_1612-33" width="90" height="90" fill="gray" data-name="Rectangle 1612" transform="translate(0 90)"/></g><g transform="translate(540 900)"><rect id="Rectangle_1609-34" width="90" height="90" fill="#e6e6e6" data-name="Rectangle 1609"/><rect id="Rectangle_1611-34" width="90" height="90" fill="#e6e6e6" data-name="Rectangle 1611" transform="translate(90 90)"/><rect id="Rectangle_1610-34" width="90" height="90" fill="gray" data-name="Rectangle 1610" transform="translate(90)"/><rect id="Rectangle_1612-34" width="90" height="90" fill="gray" data-name="Rectangle 1612" transform="translate(0 90)"/></g><g transform="translate(720 900)"><rect id="Rectangle_1609-35" width="90" height="90" fill="#e6e6e6" data-name="Rectangle 1609"/><rect id="Rectangle_1611-35" width="90" height="90" fill="#e6e6e6" data-name="Rectangle 1611" transform="translate(90 90)"/><rect id="Rectangle_1610-35" width="90" height="90" fill="gray" data-name="Rectangle 1610" transform="translate(90)"/><rect id="Rectangle_1612-35" width="90" height="90" fill="gray" data-name="Rectangle 1612" transform="translate(0 90)"/></g><g transform="translate(900 900)"><rect id="Rectangle_1609-36" width="90" height="90" fill="#e6e6e6" data-name="Rectangle 1609"/><rect id="Rectangle_1611-36" width="90" height="90" fill="#e6e6e6" data-name="Rectangle 1611" transform="translate(90 90)"/><rect id="Rectangle_1610-36" width="90" height="90" fill="gray" data-name="Rectangle 1610" transform="translate(90)"/><rect id="Rectangle_1612-36" width="90" height="90" fill="gray" data-name="Rectangle 1612" transform="translate(0 90)"/></g></g><g id="Mask_Group_4" clip-path="url(#clip-path-2)" data-name="Mask Group 4"><g id="Repeat_Grid_2" clip-path="url(#clip-path)" data-name="Repeat Grid 2"><g><rect id="Rectangle_1609-37" width="90" height="90" fill="#fff" data-name="Rectangle 1609"/><rect id="Rectangle_1611-37" width="90" height="90" fill="#fff" data-name="Rectangle 1611" transform="translate(90 90)"/><rect id="Rectangle_1610-37" width="90" height="90" data-name="Rectangle 1610" transform="translate(90)"/><rect id="Rectangle_1612-37" width="90" height="90" data-name="Rectangle 1612" transform="translate(0 90)"/></g><g transform="translate(180)"><rect id="Rectangle_1609-38" width="90" height="90" fill="#fff" data-name="Rectangle 1609"/><rect id="Rectangle_1611-38" width="90" height="90" fill="#fff" data-name="Rectangle 1611" transform="translate(90 90)"/><rect id="Rectangle_1610-38" width="90" height="90" data-name="Rectangle 1610" transform="translate(90)"/><rect id="Rectangle_1612-38" width="90" height="90" data-name="Rectangle 1612" transform="translate(0 90)"/></g><g transform="translate(360)"><rect id="Rectangle_1609-39" width="90" height="90" fill="#fff" data-name="Rectangle 1609"/><rect id="Rectangle_1611-39" width="90" height="90" fill="#fff" data-name="Rectangle 1611" transform="translate(90 90)"/><rect id="Rectangle_1610-39" width="90" height="90" data-name="Rectangle 1610" transform="translate(90)"/><rect id="Rectangle_1612-39" width="90" height="90" data-name="Rectangle 1612" transform="translate(0 90)"/></g><g transform="translate(540)"><rect id="Rectangle_1609-40" width="90" height="90" fill="#fff" data-name="Rectangle 1609"/><rect id="Rectangle_1611-40" width="90" height="90" fill="#fff" data-name="Rectangle 1611" transform="translate(90 90)"/><rect id="Rectangle_1610-40" width="90" height="90" data-name="Rectangle 1610" transform="translate(90)"/><rect id="Rectangle_1612-40" width="90" height="90" data-name="Rectangle 1612" transform="translate(0 90)"/></g><g transform="translate(720)"><rect id="Rectangle_1609-41" width="90" height="90" fill="#fff" data-name="Rectangle 1609"/><rect id="Rectangle_1611-41" width="90" height="90" fill="#fff" data-name="Rectangle 1611" transform="translate(90 90)"/><rect id="Rectangle_1610-41" width="90" height="90" data-name="Rectangle 1610" transform="translate(90)"/><rect id="Rectangle_1612-41" width="90" height="90" data-name="Rectangle 1612" transform="translate(0 90)"/></g><g transform="translate(900)"><rect id="Rectangle_1609-42" width="90" height="90" fill="#fff" data-name="Rectangle 1609"/><rect id="Rectangle_1611-42" width="90" height="90" fill="#fff" data-name="Rectangle 1611" transform="translate(90 90)"/><rect id="Rectangle_1610-42" width="90" height="90" data-name="Rectangle 1610" transform="translate(90)"/><rect id="Rectangle_1612-42" width="90" height="90" data-name="Rectangle 1612" transform="translate(0 90)"/></g><g transform="translate(0 180)"><rect id="Rectangle_1609-43" width="90" height="90" fill="#fff" data-name="Rectangle 1609"/><rect id="Rectangle_1611-43" width="90" height="90" fill="#fff" data-name="Rectangle 1611" transform="translate(90 90)"/><rect id="Rectangle_1610-43" width="90" height="90" data-name="Rectangle 1610" transform="translate(90)"/><rect id="Rectangle_1612-43" width="90" height="90" data-name="Rectangle 1612" transform="translate(0 90)"/></g><g transform="translate(180 180)"><rect id="Rectangle_1609-44" width="90" height="90" fill="#fff" data-name="Rectangle 1609"/><rect id="Rectangle_1611-44" width="90" height="90" fill="#fff" data-name="Rectangle 1611" transform="translate(90 90)"/><rect id="Rectangle_1610-44" width="90" height="90" data-name="Rectangle 1610" transform="translate(90)"/><rect id="Rectangle_1612-44" width="90" height="90" data-name="Rectangle 1612" transform="translate(0 90)"/></g><g transform="translate(360 180)"><rect id="Rectangle_1609-45" width="90" height="90" fill="#fff" data-name="Rectangle 1609"/><rect id="Rectangle_1611-45" width="90" height="90" fill="#fff" data-name="Rectangle 1611" transform="translate(90 90)"/><rect id="Rectangle_1610-45" width="90" height="90" data-name="Rectangle 1610" transform="translate(90)"/><rect id="Rectangle_1612-45" width="90" height="90" data-name="Rectangle 1612" transform="translate(0 90)"/></g><g transform="translate(540 180)"><rect id="Rectangle_1609-46" width="90" height="90" fill="#fff" data-name="Rectangle 1609"/><rect id="Rectangle_1611-46" width="90" height="90" fill="#fff" data-name="Rectangle 1611" transform="translate(90 90)"/><rect id="Rectangle_1610-46" width="90" height="90" data-name="Rectangle 1610" transform="translate(90)"/><rect id="Rectangle_1612-46" width="90" height="90" data-name="Rectangle 1612" transform="translate(0 90)"/></g><g transform="translate(720 180)"><rect id="Rectangle_1609-47" width="90" height="90" fill="#fff" data-name="Rectangle 1609"/><rect id="Rectangle_1611-47" width="90" height="90" fill="#fff" data-name="Rectangle 1611" transform="translate(90 90)"/><rect id="Rectangle_1610-47" width="90" height="90" data-name="Rectangle 1610" transform="translate(90)"/><rect id="Rectangle_1612-47" width="90" height="90" data-name="Rectangle 1612" transform="translate(0 90)"/></g><g transform="translate(900 180)"><rect id="Rectangle_1609-48" width="90" height="90" fill="#fff" data-name="Rectangle 1609"/><rect id="Rectangle_1611-48" width="90" height="90" fill="#fff" data-name="Rectangle 1611" transform="translate(90 90)"/><rect id="Rectangle_1610-48" width="90" height="90" data-name="Rectangle 1610" transform="translate(90)"/><rect id="Rectangle_1612-48" width="90" height="90" data-name="Rectangle 1612" transform="translate(0 90)"/></g><g transform="translate(0 360)"><rect id="Rectangle_1609-49" width="90" height="90" fill="#fff" data-name="Rectangle 1609"/><rect id="Rectangle_1611-49" width="90" height="90" fill="#fff" data-name="Rectangle 1611" transform="translate(90 90)"/><rect id="Rectangle_1610-49" width="90" height="90" data-name="Rectangle 1610" transform="translate(90)"/><rect id="Rectangle_1612-49" width="90" height="90" data-name="Rectangle 1612" transform="translate(0 90)"/></g><g transform="translate(180 360)"><rect id="Rectangle_1609-50" width="90" height="90" fill="#fff" data-name="Rectangle 1609"/><rect id="Rectangle_1611-50" width="90" height="90" fill="#fff" data-name="Rectangle 1611" transform="translate(90 90)"/><rect id="Rectangle_1610-50" width="90" height="90" data-name="Rectangle 1610" transform="translate(90)"/><rect id="Rectangle_1612-50" width="90" height="90" data-name="Rectangle 1612" transform="translate(0 90)"/></g><g transform="translate(360 360)"><rect id="Rectangle_1609-51" width="90" height="90" fill="#fff" data-name="Rectangle 1609"/><rect id="Rectangle_1611-51" width="90" height="90" fill="#fff" data-name="Rectangle 1611" transform="translate(90 90)"/><rect id="Rectangle_1610-51" width="90" height="90" data-name="Rectangle 1610" transform="translate(90)"/><rect id="Rectangle_1612-51" width="90" height="90" data-name="Rectangle 1612" transform="translate(0 90)"/></g><g transform="translate(540 360)"><rect id="Rectangle_1609-52" width="90" height="90" fill="#fff" data-name="Rectangle 1609"/><rect id="Rectangle_1611-52" width="90" height="90" fill="#fff" data-name="Rectangle 1611" transform="translate(90 90)"/><rect id="Rectangle_1610-52" width="90" height="90" data-name="Rectangle 1610" transform="translate(90)"/><rect id="Rectangle_1612-52" width="90" height="90" data-name="Rectangle 1612" transform="translate(0 90)"/></g><g transform="translate(720 360)"><rect id="Rectangle_1609-53" width="90" height="90" fill="#fff" data-name="Rectangle 1609"/><rect id="Rectangle_1611-53" width="90" height="90" fill="#fff" data-name="Rectangle 1611" transform="translate(90 90)"/><rect id="Rectangle_1610-53" width="90" height="90" data-name="Rectangle 1610" transform="translate(90)"/><rect id="Rectangle_1612-53" width="90" height="90" data-name="Rectangle 1612" transform="translate(0 90)"/></g><g transform="translate(900 360)"><rect id="Rectangle_1609-54" width="90" height="90" fill="#fff" data-name="Rectangle 1609"/><rect id="Rectangle_1611-54" width="90" height="90" fill="#fff" data-name="Rectangle 1611" transform="translate(90 90)"/><rect id="Rectangle_1610-54" width="90" height="90" data-name="Rectangle 1610" transform="translate(90)"/><rect id="Rectangle_1612-54" width="90" height="90" data-name="Rectangle 1612" transform="translate(0 90)"/></g><g transform="translate(0 540)"><rect id="Rectangle_1609-55" width="90" height="90" fill="#fff" data-name="Rectangle 1609"/><rect id="Rectangle_1611-55" width="90" height="90" fill="#fff" data-name="Rectangle 1611" transform="translate(90 90)"/><rect id="Rectangle_1610-55" width="90" height="90" data-name="Rectangle 1610" transform="translate(90)"/><rect id="Rectangle_1612-55" width="90" height="90" data-name="Rectangle 1612" transform="translate(0 90)"/></g><g transform="translate(180 540)"><rect id="Rectangle_1609-56" width="90" height="90" fill="#fff" data-name="Rectangle 1609"/><rect id="Rectangle_1611-56" width="90" height="90" fill="#fff" data-name="Rectangle 1611" transform="translate(90 90)"/><rect id="Rectangle_1610-56" width="90" height="90" data-name="Rectangle 1610" transform="translate(90)"/><rect id="Rectangle_1612-56" width="90" height="90" data-name="Rectangle 1612" transform="translate(0 90)"/></g><g transform="translate(360 540)"><rect id="Rectangle_1609-57" width="90" height="90" fill="#fff" data-name="Rectangle 1609"/><rect id="Rectangle_1611-57" width="90" height="90" fill="#fff" data-name="Rectangle 1611" transform="translate(90 90)"/><rect id="Rectangle_1610-57" width="90" height="90" data-name="Rectangle 1610" transform="translate(90)"/><rect id="Rectangle_1612-57" width="90" height="90" data-name="Rectangle 1612" transform="translate(0 90)"/></g><g transform="translate(540 540)"><rect id="Rectangle_1609-58" width="90" height="90" fill="#fff" data-name="Rectangle 1609"/><rect id="Rectangle_1611-58" width="90" height="90" fill="#fff" data-name="Rectangle 1611" transform="translate(90 90)"/><rect id="Rectangle_1610-58" width="90" height="90" data-name="Rectangle 1610" transform="translate(90)"/><rect id="Rectangle_1612-58" width="90" height="90" data-name="Rectangle 1612" transform="translate(0 90)"/></g><g transform="translate(720 540)"><rect id="Rectangle_1609-59" width="90" height="90" fill="#fff" data-name="Rectangle 1609"/><rect id="Rectangle_1611-59" width="90" height="90" fill="#fff" data-name="Rectangle 1611" transform="translate(90 90)"/><rect id="Rectangle_1610-59" width="90" height="90" data-name="Rectangle 1610" transform="translate(90)"/><rect id="Rectangle_1612-59" width="90" height="90" data-name="Rectangle 1612" transform="translate(0 90)"/></g><g transform="translate(900 540)"><rect id="Rectangle_1609-60" width="90" height="90" fill="#fff" data-name="Rectangle 1609"/><rect id="Rectangle_1611-60" width="90" height="90" fill="#fff" data-name="Rectangle 1611" transform="translate(90 90)"/><rect id="Rectangle_1610-60" width="90" height="90" data-name="Rectangle 1610" transform="translate(90)"/><rect id="Rectangle_1612-60" width="90" height="90" data-name="Rectangle 1612" transform="translate(0 90)"/></g><g transform="translate(0 720)"><rect id="Rectangle_1609-61" width="90" height="90" fill="#fff" data-name="Rectangle 1609"/><rect id="Rectangle_1611-61" width="90" height="90" fill="#fff" data-name="Rectangle 1611" transform="translate(90 90)"/><rect id="Rectangle_1610-61" width="90" height="90" data-name="Rectangle 1610" transform="translate(90)"/><rect id="Rectangle_1612-61" width="90" height="90" data-name="Rectangle 1612" transform="translate(0 90)"/></g><g transform="translate(180 720)"><rect id="Rectangle_1609-62" width="90" height="90" fill="#fff" data-name="Rectangle 1609"/><rect id="Rectangle_1611-62" width="90" height="90" fill="#fff" data-name="Rectangle 1611" transform="translate(90 90)"/><rect id="Rectangle_1610-62" width="90" height="90" data-name="Rectangle 1610" transform="translate(90)"/><rect id="Rectangle_1612-62" width="90" height="90" data-name="Rectangle 1612" transform="translate(0 90)"/></g><g transform="translate(360 720)"><rect id="Rectangle_1609-63" width="90" height="90" fill="#fff" data-name="Rectangle 1609"/><rect id="Rectangle_1611-63" width="90" height="90" fill="#fff" data-name="Rectangle 1611" transform="translate(90 90)"/><rect id="Rectangle_1610-63" width="90" height="90" data-name="Rectangle 1610" transform="translate(90)"/><rect id="Rectangle_1612-63" width="90" height="90" data-name="Rectangle 1612" transform="translate(0 90)"/></g><g transform="translate(540 720)"><rect id="Rectangle_1609-64" width="90" height="90" fill="#fff" data-name="Rectangle 1609"/><rect id="Rectangle_1611-64" width="90" height="90" fill="#fff" data-name="Rectangle 1611" transform="translate(90 90)"/><rect id="Rectangle_1610-64" width="90" height="90" data-name="Rectangle 1610" transform="translate(90)"/><rect id="Rectangle_1612-64" width="90" height="90" data-name="Rectangle 1612" transform="translate(0 90)"/></g><g transform="translate(720 720)"><rect id="Rectangle_1609-65" width="90" height="90" fill="#fff" data-name="Rectangle 1609"/><rect id="Rectangle_1611-65" width="90" height="90" fill="#fff" data-name="Rectangle 1611" transform="translate(90 90)"/><rect id="Rectangle_1610-65" width="90" height="90" data-name="Rectangle 1610" transform="translate(90)"/><rect id="Rectangle_1612-65" width="90" height="90" data-name="Rectangle 1612" transform="translate(0 90)"/></g><g transform="translate(900 720)"><rect id="Rectangle_1609-66" width="90" height="90" fill="#fff" data-name="Rectangle 1609"/><rect id="Rectangle_1611-66" width="90" height="90" fill="#fff" data-name="Rectangle 1611" transform="translate(90 90)"/><rect id="Rectangle_1610-66" width="90" height="90" data-name="Rectangle 1610" transform="translate(90)"/><rect id="Rectangle_1612-66" width="90" height="90" data-name="Rectangle 1612" transform="translate(0 90)"/></g><g transform="translate(0 900)"><rect id="Rectangle_1609-67" width="90" height="90" fill="#fff" data-name="Rectangle 1609"/><rect id="Rectangle_1611-67" width="90" height="90" fill="#fff" data-name="Rectangle 1611" transform="translate(90 90)"/><rect id="Rectangle_1610-67" width="90" height="90" data-name="Rectangle 1610" transform="translate(90)"/><rect id="Rectangle_1612-67" width="90" height="90" data-name="Rectangle 1612" transform="translate(0 90)"/></g><g transform="translate(180 900)"><rect id="Rectangle_1609-68" width="90" height="90" fill="#fff" data-name="Rectangle 1609"/><rect id="Rectangle_1611-68" width="90" height="90" fill="#fff" data-name="Rectangle 1611" transform="translate(90 90)"/><rect id="Rectangle_1610-68" width="90" height="90" data-name="Rectangle 1610" transform="translate(90)"/><rect id="Rectangle_1612-68" width="90" height="90" data-name="Rectangle 1612" transform="translate(0 90)"/></g><g transform="translate(360 900)"><rect id="Rectangle_1609-69" width="90" height="90" fill="#fff" data-name="Rectangle 1609"/><rect id="Rectangle_1611-69" width="90" height="90" fill="#fff" data-name="Rectangle 1611" transform="translate(90 90)"/><rect id="Rectangle_1610-69" width="90" height="90" data-name="Rectangle 1610" transform="translate(90)"/><rect id="Rectangle_1612-69" width="90" height="90" data-name="Rectangle 1612" transform="translate(0 90)"/></g><g transform="translate(540 900)"><rect id="Rectangle_1609-70" width="90" height="90" fill="#fff" data-name="Rectangle 1609"/><rect id="Rectangle_1611-70" width="90" height="90" fill="#fff" data-name="Rectangle 1611" transform="translate(90 90)"/><rect id="Rectangle_1610-70" width="90" height="90" data-name="Rectangle 1610" transform="translate(90)"/><rect id="Rectangle_1612-70" width="90" height="90" data-name="Rectangle 1612" transform="translate(0 90)"/></g><g transform="translate(720 900)"><rect id="Rectangle_1609-71" width="90" height="90" fill="#fff" data-name="Rectangle 1609"/><rect id="Rectangle_1611-71" width="90" height="90" fill="#fff" data-name="Rectangle 1611" transform="translate(90 90)"/><rect id="Rectangle_1610-71" width="90" height="90" data-name="Rectangle 1610" transform="translate(90)"/><rect id="Rectangle_1612-71" width="90" height="90" data-name="Rectangle 1612" transform="translate(0 90)"/></g><g transform="translate(900 900)"><rect id="Rectangle_1609-72" width="90" height="90" fill="#fff" data-name="Rectangle 1609"/><rect id="Rectangle_1611-72" width="90" height="90" fill="#fff" data-name="Rectangle 1611" transform="translate(90 90)"/><rect id="Rectangle_1610-72" width="90" height="90" data-name="Rectangle 1610" transform="translate(90)"/><rect id="Rectangle_1612-72" width="90" height="90" data-name="Rectangle 1612" transform="translate(0 90)"/></g></g></g></g></svg>