<svg xmlns="http://www.w3.org/2000/svg" xmlns:xlink="http://www.w3.org/1999/xlink" width="1080" height="1080" viewBox="0 0 1080 1080"><defs><clipPath id="clip-color-dark"><rect width="1080" height="1080"/></clipPath></defs><g id="color-dark" clip-path="url(#clip-color-dark)"><path id="Union_5" fill="#fff" d="M-5038,18832.5v-405c0-111.832,161.178-202.5,360-202.5s360,90.666,360,202.5v405c0,111.84-161.177,202.5-360,202.5S-5038,18944.338-5038,18832.5Z" data-name="Union 5" transform="translate(5172.998 -18090)"/><g id="Group_8" data-name="Group 8" transform="translate(89.998)"><path id="Union_4" d="M-5038,19749v-180h630v180c0,99.41-141.028,180-315,180S-5038,19848.41-5038,19749Z" data-name="Union 4" transform="translate(5128 -19029)"/><path id="Union_3" fill="gray" d="M-5038,19749v-180h630v180c0,99.41-141.028,180-315,180S-5038,19848.41-5038,19749Z" data-name="Union 3" transform="translate(5128 -19209)"/><ellipse id="Ellipse_6" cx="315" cy="180" fill="#e6e6e6" data-name="Ellipse 6" rx="315" ry="180" transform="translate(90 180)"/></g><path id="Rectangle_1577" fill="#fff" d="M90,0H360a90,90,0,0,1,90,90V450a90,90,0,0,1-90,90H0a0,0,0,0,1,0,0V90A90,90,0,0,1,90,0Z" data-name="Rectangle 1577" transform="translate(495 405)"/><g id="Rectangle_1578" stroke="#707070" stroke-width="1" data-name="Rectangle 1578" transform="translate(585 765)"><rect width="90" height="90" stroke="none"/><rect width="89" height="89" x=".5" y=".5" fill="none"/></g><path id="Rectangle_1580" d="M0,0H270a0,0,0,0,1,0,0V0a90,90,0,0,1-90,90H0a0,0,0,0,1,0,0V0A0,0,0,0,1,0,0Z" data-name="Rectangle 1580" transform="translate(585 585)"/><rect id="Rectangle_1581" width="450" height="90" fill="#ffc107" data-name="Rectangle 1581" transform="translate(495 405)"/><circle id="Ellipse_9" cx="45" cy="45" r="45" data-name="Ellipse 9" transform="translate(765 765)"/></g></svg>