<svg xmlns="http://www.w3.org/2000/svg" width="416.338" height="338.265" viewBox="0 0 416.338 338.265"><g transform="translate(-751.799 -845.977)"><g transform="translate(1139.87 1136.114)"><path d="M-62.87-250.116c38.708,18.969,79.708,48.392,89,86,9.347,37.608-13.3,83.581-42,118-28.7,34.364-63.632,57.34-103,74s-83.216,27.1-120,15-66.244-46.3-95-86-56.859-85.124-54-129c2.914-43.876,36.368-86.416,77-105,40.578-18.639,88.938-13.708,131-7,42.062,6.763,78.292,15.031,117,34" transform="translate(0 0)"/></g><path d="M29,49.884l19-15-19-14Zm6-47a32,32,0,1,0,32,32A32.012,32.012,0,0,0,35,2.884Zm0,58a26.323,26.323,0,0,1-26-26c0-14.112,11.888-25,26-25s26,10.888,26,25A26.323,26.323,0,0,1,35,60.884Z" transform="translate(925 948.115)" fill="#ffc107"/><text transform="translate(960 1055.999)" fill="#fff" font-size="24" font-family="AtkinsonHyperlegible-Regular, Atkinson Hyperlegible"><tspan x="-81.072" y="0">Play intro video</tspan></text></g></svg>